<?xml version="1.0" standalone="no"?>
<!DOCTYPE svg PUBLIC "-//W3C//DTD SVG 20010904//EN"
 "http://www.w3.org/TR/2001/REC-SVG-20010904/DTD/svg10.dtd">
<svg version="1.0" xmlns="http://www.w3.org/2000/svg"
 width="177.000000pt" height="148.000000pt" viewBox="0 0 177.000000 148.000000"
 preserveAspectRatio="xMidYMid meet">

<g transform="translate(0.000000,148.000000) scale(0.100000,-0.100000)"
fill="#000000" stroke="none">
<path d="M570 1219 c-157 -127 -320 -259 -362 -293 -115 -91 -134 -154 -66
-211 24 -21 40 -25 89 -25 l59 0 0 -230 c0 -129 5 -251 11 -280 13 -59 57
-116 106 -136 43 -18 313 -20 331 -2 9 9 12 75 12 235 l0 223 135 0 135 0 0
-223 c0 -160 3 -226 12 -235 18 -18 288 -16 331 2 49 20 93 77 106 136 6 29
11 151 11 280 l0 230 59 0 c49 0 65 4 89 25 70 59 49 120 -76 220 -48 38 -204
164 -348 281 -278 225 -290 234 -326 234 -15 0 -120 -78 -308 -231z m362 122
c18 -15 112 -92 208 -170 96 -78 237 -192 313 -254 83 -68 137 -118 137 -129
0 -16 -10 -18 -76 -18 -123 0 -114 25 -114 -303 0 -262 -1 -284 -20 -314 -25
-42 -73 -55 -192 -51 l-93 3 -5 230 -5 230 -200 0 -200 0 -5 -230 -5 -230 -93
-3 c-119 -4 -167 9 -192 51 -19 30 -20 52 -20 314 0 328 9 303 -114 303 -66 0
-76 2 -76 18 0 11 54 61 138 129 75 62 232 189 347 282 116 94 215 171 222
171 7 0 27 -13 45 -29z"/>
</g>
</svg>
